<svg width="360" height="51" viewBox="0 0 360 51" fill="none" xmlns="http://www.w3.org/2000/svg">
<g clip-path="url(#clip0_2695_12950)">
<path d="M79.5727 45.6772C79.4289 45.41 79.4289 45.0401 79.5727 44.6086L92.3348 9.11738C92.4786 8.74747 92.6225 8.4803 92.7869 8.3159C92.9513 8.17204 93.239 8.08984 93.65 8.08984H101.336C102.096 8.08984 102.59 8.45976 102.877 9.22014L115.537 44.7113C115.639 44.9785 115.639 45.2867 115.537 45.6155C115.434 45.9443 115.228 46.1088 114.92 46.1088H107.398C106.885 46.1088 106.556 45.8621 106.433 45.3895L103.761 37.909C103.72 37.7446 103.658 37.6007 103.576 37.498C103.494 37.3952 103.329 37.3541 103.083 37.3541H90.5879C90.2386 37.3541 90.0331 37.5185 89.9303 37.8679L87.2176 45.4511C87.156 45.6566 87.0327 45.821 86.8888 45.9444C86.7449 46.0677 86.4778 46.1293 86.149 46.1293H80.2509C79.9426 46.0882 79.7166 45.9443 79.5727 45.6772ZM100.987 30.5107C101.459 30.5107 101.624 30.223 101.439 29.6476L97.1436 17.6665C97.0409 17.461 96.9381 17.3582 96.8148 17.3582C96.6915 17.3582 96.5888 17.4815 96.486 17.7076L92.1292 29.6476C91.8826 30.223 92.047 30.5107 92.5814 30.5107H100.987Z" fill="#015F86"/>
<path d="M146.383 8.44075C146.527 8.68735 146.547 8.95451 146.404 9.26278L134.114 45.0211C133.909 45.7404 133.374 46.0897 132.532 46.0897H126.12C125.236 46.0897 124.681 45.7404 124.476 45.0211L112.289 9.32443C112.187 8.97507 112.207 8.68736 112.372 8.4613C112.515 8.21469 112.762 8.11193 113.111 8.11193H120.489C121.044 8.11193 121.393 8.39965 121.558 8.97507L129.963 34.8896C130.169 35.4444 130.374 35.4239 130.58 34.8485L138.718 8.97507C138.862 8.39965 139.231 8.11193 139.848 8.11193H145.643C145.993 8.09138 146.239 8.19414 146.383 8.44075Z" fill="#015F86"/>
<path d="M143.444 45.7193C143.3 45.4727 143.3 45.1644 143.444 44.7945L156.35 8.9951C156.494 8.64573 156.637 8.41968 156.802 8.27582C156.966 8.13196 157.233 8.07031 157.562 8.07031H163.995C164.714 8.07031 165.187 8.41968 165.433 9.09785L178.236 44.8562C178.339 45.1233 178.339 45.411 178.236 45.6782C178.134 45.9454 177.949 46.0892 177.681 46.0892H171.475C171.002 46.0892 170.694 45.8632 170.55 45.4316L167.57 37.1291C167.529 36.9647 167.468 36.8208 167.385 36.7386C167.303 36.6564 167.159 36.6153 166.954 36.6153H153.596C153.288 36.6153 153.082 36.7592 152.979 37.0674L149.897 45.4727C149.856 45.6782 149.773 45.8221 149.609 45.9248C149.465 46.0276 149.239 46.0687 148.972 46.0687H143.999C143.773 46.0892 143.588 45.9659 143.444 45.7193ZM165.104 30.82C165.556 30.82 165.68 30.5528 165.515 29.998L160.604 16.3317C160.501 16.0851 160.378 15.9824 160.254 15.9824C160.11 15.9824 160.008 16.1262 159.905 16.3934L154.932 30.0185C154.726 30.5734 154.87 30.8406 155.343 30.8406H165.104V30.82Z" fill="#303F49"/>
<path d="M182.121 45.1643V19.8046C182.121 19.2292 182.368 18.9415 182.84 18.9415H187.958C188.41 18.9415 188.615 19.1881 188.615 19.7019V22.3735C188.615 22.579 188.656 22.7023 188.759 22.7639C188.862 22.805 189.006 22.7639 189.17 22.579C190.156 21.7159 191.122 20.9966 192.047 20.3801C192.972 19.7635 193.917 19.2909 194.924 18.9415C195.911 18.5921 196.979 18.4277 198.151 18.4277C200.678 18.4277 202.672 19.147 204.11 20.6061C205.569 22.0652 206.289 23.9764 206.289 26.3603V44.9999C206.289 45.7191 205.939 46.0685 205.22 46.0685H200.514C200.206 46.0685 199.98 46.0069 199.856 45.863C199.713 45.7191 199.651 45.4931 199.651 45.1437V27.5317C199.651 26.1959 199.302 25.1684 198.582 24.4286C197.863 23.6887 196.794 23.3188 195.356 23.3188C194.534 23.3188 193.773 23.4421 193.075 23.7093C192.376 23.9559 191.677 24.3464 190.999 24.8601C190.321 25.3739 189.581 26.0315 188.8 26.8124V45.041C188.8 45.7191 188.41 46.0685 187.629 46.0685H183.066C182.429 46.0891 182.121 45.7808 182.121 45.1643Z" fill="#303F49"/>
<path d="M211.158 45.1643V19.8046C211.158 19.2292 211.405 18.9415 211.877 18.9415H216.995C217.447 18.9415 217.652 19.1881 217.652 19.7019V22.3735C217.652 22.579 217.693 22.7023 217.796 22.7639C217.899 22.8256 218.043 22.7639 218.207 22.579C219.194 21.7159 220.159 20.9966 221.084 20.3801C222.009 19.7635 222.954 19.2909 223.961 18.9415C224.948 18.5921 226.037 18.4277 227.188 18.4277C229.716 18.4277 231.709 19.147 233.148 20.6061C234.607 22.0652 235.326 23.9764 235.326 26.3603V44.9999C235.326 45.7191 234.977 46.0685 234.257 46.0685H229.551C229.243 46.0685 229.017 46.0069 228.894 45.863C228.75 45.7191 228.688 45.4931 228.688 45.1437V27.5317C228.688 26.1959 228.339 25.1684 227.619 24.4286C226.9 23.6887 225.831 23.3188 224.393 23.3188C223.571 23.3188 222.81 23.4421 222.112 23.7093C221.413 23.9559 220.714 24.3464 220.036 24.8601C219.358 25.3739 218.618 26.0315 217.837 26.8124V45.041C217.837 45.7191 217.447 46.0685 216.666 46.0685H212.083C211.466 46.0891 211.158 45.7808 211.158 45.1643Z" fill="#303F49"/>
<path d="M245.273 44.7954C243.259 43.6034 241.677 41.9594 240.526 39.8427C239.375 37.7465 238.82 35.342 238.82 32.6499C238.82 29.8139 239.416 27.3272 240.588 25.19C241.759 23.0527 243.362 21.3881 245.397 20.1961C247.431 19.0042 249.733 18.4082 252.343 18.4082C255.035 18.4082 257.398 19.0247 259.412 20.2167C261.426 21.4292 262.988 23.0938 264.118 25.2311C265.249 27.3683 265.803 29.8139 265.803 32.5882C265.803 35.3215 265.228 37.7259 264.098 39.8427C262.947 41.9388 261.365 43.5829 259.351 44.7954C257.337 45.9873 254.973 46.5833 252.281 46.5833C249.609 46.6039 247.287 46.0079 245.273 44.7954ZM256.021 40.9318C257.008 40.192 257.768 39.1234 258.282 37.7054C258.796 36.2874 259.042 34.5611 259.042 32.506C259.042 30.4304 258.775 28.663 258.241 27.2245C257.706 25.7859 256.946 24.6967 255.96 23.9364C254.973 23.176 253.761 22.8061 252.322 22.8061C250.925 22.8061 249.712 23.176 248.685 23.9364C247.657 24.6967 246.876 25.7859 246.362 27.2245C245.828 28.663 245.561 30.4098 245.561 32.506C245.561 34.5611 245.828 36.2874 246.362 37.7054C246.897 39.1234 247.678 40.192 248.685 40.9318C249.712 41.6717 250.925 42.0416 252.322 42.0416C253.802 42.0416 255.035 41.6717 256.021 40.9318Z" fill="#303F49"/>
<path d="M278.709 23.6061C278.359 23.6061 278.195 23.791 278.195 24.1609V37.8477C278.195 39.1835 278.462 40.1083 279.017 40.6221C279.572 41.1359 280.414 41.3825 281.586 41.3825H284.607C284.812 41.3825 284.977 41.4441 285.121 41.588C285.264 41.7318 285.326 41.8962 285.326 42.1017L285.285 44.7733C285.285 45.3282 284.956 45.657 284.319 45.8009C283.805 45.8625 283.209 45.9242 282.531 45.9858C281.853 46.0269 281.175 46.068 280.517 46.0886C279.86 46.1091 279.243 46.1091 278.709 46.1091C276.428 46.1091 274.66 45.5748 273.427 44.5062C272.194 43.4375 271.578 41.7935 271.578 39.6151V24.3048C271.578 23.8527 271.372 23.6472 270.961 23.6472H267.529C266.974 23.6472 266.707 23.4005 266.707 22.8868V19.6603C266.707 19.2082 266.954 19.0027 267.467 19.0027H271.249C271.557 19.0027 271.701 18.8383 271.701 18.4889L272.358 10.5974C272.4 10.0426 272.626 9.77539 273.078 9.77539H277.64C278.113 9.77539 278.359 10.0631 278.359 10.6385V18.4684C278.359 18.7766 278.503 18.9205 278.811 18.9205H284.607C285.121 18.9205 285.367 19.1671 285.367 19.6398V22.8662C285.367 23.38 285.079 23.6266 284.504 23.6266H278.709V23.6061Z" fill="#303F49"/>
<path d="M300.02 45.6994C298.664 46.2954 297.102 46.6037 295.355 46.6037C292.725 46.6037 290.67 45.905 289.19 44.5281C287.711 43.1512 286.971 41.3427 286.971 39.1232C286.971 37.2531 287.526 35.609 288.656 34.2321C289.786 32.8552 291.43 31.766 293.567 30.9851C295.725 30.2042 298.294 29.7315 301.295 29.6082L303.863 29.4643C304.069 29.4232 304.254 29.3616 304.418 29.2588C304.583 29.1561 304.665 28.9711 304.665 28.704V27.5326C304.665 26.0324 304.213 24.861 303.329 24.0184C302.445 23.1758 301.212 22.7648 299.651 22.7648C298.459 22.7648 297.328 23.032 296.301 23.5663C295.253 24.1006 294.369 24.9637 293.609 26.1557C293.506 26.3612 293.403 26.505 293.28 26.5667C293.156 26.6283 292.951 26.6283 292.643 26.5667L288.348 25.4981C288.183 25.4364 288.039 25.3336 287.957 25.1898C287.875 25.0459 287.937 24.7788 288.142 24.3678C289.067 22.4154 290.526 20.9563 292.519 19.9699C294.513 18.9835 296.999 18.4902 299.979 18.4902C302.61 18.4902 304.727 18.8396 306.35 19.5589C307.974 20.2782 309.166 21.2646 309.905 22.5593C310.666 23.8334 311.036 25.3542 311.036 27.101V45.124C311.036 45.4939 310.974 45.7611 310.851 45.9255C310.727 46.0694 310.501 46.1516 310.152 46.1516H305.795C305.487 46.1516 305.261 46.0283 305.138 45.8022C304.994 45.5556 304.912 45.2679 304.891 44.9391L304.788 43.3978C304.727 42.8223 304.398 42.8018 303.822 43.3567C302.651 44.302 301.377 45.1035 300.02 45.6994ZM303.905 32.8141L301.808 32.958C300.719 33.0196 299.671 33.184 298.664 33.4512C297.657 33.6978 296.773 34.0472 295.992 34.4787C295.232 34.9103 294.616 35.4446 294.143 36.0611C293.691 36.6982 293.444 37.438 293.444 38.2806C293.444 39.4315 293.855 40.3562 294.698 41.055C295.54 41.7331 296.671 42.0825 298.109 42.0825C299.034 42.0825 299.877 41.9387 300.678 41.6304C301.459 41.3221 302.137 40.9317 302.733 40.459C303.309 39.9863 303.781 39.4726 304.151 38.9382C304.5 38.4039 304.685 37.8696 304.685 37.3353V33.6978C304.685 33.0813 304.418 32.7936 303.905 32.8141Z" fill="#303F49"/>
<path d="M325.277 23.6061C324.928 23.6061 324.763 23.791 324.763 24.1609V37.8477C324.763 39.1835 325.03 40.1083 325.585 40.6221C326.14 41.1359 326.983 41.3825 328.154 41.3825H331.175C331.381 41.3825 331.545 41.4441 331.689 41.588C331.833 41.7318 331.894 41.8962 331.894 42.1017L331.853 44.7733C331.853 45.3282 331.524 45.657 330.887 45.8009C330.374 45.8625 329.778 45.9242 329.099 45.9858C328.421 46.0269 327.743 46.068 327.085 46.0886C326.428 46.1091 325.811 46.1091 325.277 46.1091C322.996 46.1091 321.229 45.5748 319.995 44.5062C318.762 43.4375 318.146 41.7935 318.146 39.6151V24.3048C318.146 23.8527 317.94 23.6472 317.529 23.6472H314.097C313.543 23.6472 313.275 23.4005 313.275 22.8868V19.6603C313.275 19.2082 313.522 19.0027 314.036 19.0027H317.817C318.125 19.0027 318.269 18.8383 318.269 18.4889L318.927 10.5974C318.968 10.0426 319.194 9.77539 319.646 9.77539H324.208C324.681 9.77539 324.928 10.0631 324.928 10.6385V18.4684C324.928 18.7766 325.072 18.9205 325.38 18.9205H331.175C331.689 18.9205 331.935 19.1671 331.935 19.6398V22.8662C331.935 23.38 331.648 23.6266 331.072 23.6266H325.277V23.6061Z" fill="#303F49"/>
<path d="M341.101 38.3825C341.759 39.4923 342.643 40.3554 343.794 40.9925C344.944 41.6295 346.198 41.9378 347.554 41.9378C348.952 41.9378 350.226 41.6501 351.377 41.0747C352.528 40.4993 353.596 39.5539 354.624 38.2592C354.768 38.0948 354.871 37.9921 354.973 37.9715C355.076 37.951 355.24 38.0126 355.487 38.1565L358.611 39.5334C359.063 39.7389 359.104 40.0471 358.755 40.4582C357.727 41.9584 356.638 43.1708 355.446 44.0751C354.275 44.9793 352.98 45.6369 351.562 46.0274C350.144 46.4179 348.541 46.6234 346.774 46.6234C344.184 46.6234 341.862 46.048 339.807 44.8766C337.752 43.7257 336.149 42.1022 334.957 40.0266C333.785 37.9715 333.189 35.5876 333.189 32.8749C333.189 29.8951 333.785 27.3468 334.998 25.1889C336.21 23.0311 337.834 21.3665 339.889 20.1951C341.944 19.0237 344.184 18.4277 346.65 18.4277C349.24 18.4277 351.5 18.9826 353.432 20.1129C355.364 21.2432 356.864 22.8461 357.974 24.9629C359.063 27.0591 359.618 29.6073 359.618 32.6283C359.618 32.9777 359.597 33.2448 359.536 33.4503C359.494 33.6558 359.227 33.7792 358.796 33.7997H340.67C340.464 33.7997 340.321 33.8614 340.238 34.0052C340.156 34.1491 340.115 34.3546 340.115 34.6217C340.115 36.0192 340.444 37.2728 341.101 38.3825ZM352.261 29.9978C352.61 29.9978 352.836 29.9567 352.959 29.8745C353.083 29.7923 353.144 29.5868 353.144 29.2785C353.144 28.2304 352.898 27.1824 352.425 26.1548C351.952 25.1273 351.254 24.2847 350.329 23.6271C349.404 22.9694 348.274 22.6201 346.958 22.6201C345.602 22.6201 344.39 22.9489 343.383 23.6271C342.355 24.2847 341.574 25.1889 341.06 26.2987C340.526 27.4084 340.259 28.6415 340.259 30.0184H352.261V29.9978Z" fill="#303F49"/>
<path d="M1.48047 1.96621V48.637C1.48047 48.7397 1.56267 48.8219 1.68598 48.8219H61.8381C61.9408 48.8219 62.0436 48.7397 62.0436 48.637V17.5437C62.0436 17.5026 62.023 17.4409 61.9819 17.3998L45.418 1.8429C45.3769 1.8018 45.3358 1.78125 45.2741 1.78125H1.68598C1.56267 1.78125 1.48047 1.86345 1.48047 1.96621Z" fill="white"/>
<path d="M1.68516 0.300781H45.2733C45.7049 0.300781 46.1159 0.46519 46.4242 0.752901L62.9881 16.3098C63.3169 16.6181 63.5019 17.0702 63.5019 17.5223V48.6362C63.5019 49.561 62.7415 50.3008 61.8167 50.3008H1.68516C0.760378 50.3008 0 49.561 0 48.6362V1.96539C0 1.06116 0.760378 0.300781 1.68516 0.300781ZM60.5631 47.362V18.0977L44.7596 3.2601H2.95931V47.362H60.5631Z" fill="#303F49"/>
<path d="M60.6257 18.4455H45.9114C45.6031 18.4455 45.3359 18.1989 45.3359 17.8701V3.15571C45.3359 2.64194 45.9525 2.39533 46.3018 2.76524L61.0162 17.4796C61.3861 17.829 61.1395 18.4455 60.6257 18.4455Z" fill="#CBDAE2"/>
<path d="M45.1306 1.26552C45.8909 0.957256 46.7746 1.12166 47.35 1.71764L62.0644 16.432C62.6398 17.0279 62.8248 17.8911 62.5165 18.6515C62.2082 19.4118 61.4684 19.9051 60.6258 19.9051H45.9115C44.7812 19.9051 43.877 18.9803 43.877 17.8705V3.15619C43.877 2.31361 44.3702 1.57378 45.1306 1.26552ZM58.4474 16.9663L46.8157 5.33457V16.9663H58.4474Z" fill="#303F49"/>
<path d="M45.0058 3.25977H2.95898V13.7612H45.0058V3.25977Z" fill="#303F49"/>
<path d="M8.07765 11.4994C7.17342 11.4994 6.43359 10.7596 6.43359 9.85536V5.47805C6.43359 4.57381 7.17342 3.83398 8.07765 3.83398C8.98189 3.83398 9.72172 4.57381 9.72172 5.47805V9.85536C9.72172 10.7596 8.98189 11.4994 8.07765 11.4994Z" fill="white"/>
<path d="M16.523 11.4994C15.6187 11.4994 14.8789 10.7596 14.8789 9.85536V5.47805C14.8789 4.57381 15.6187 3.83398 16.523 3.83398C17.4272 3.83398 18.167 4.57381 18.167 5.47805V9.85536C18.167 10.7596 17.4272 11.4994 16.523 11.4994Z" fill="white"/>
<path d="M24.9702 11.4994C24.066 11.4994 23.3262 10.7596 23.3262 9.85536V5.47805C23.3262 4.57381 24.066 3.83398 24.9702 3.83398C25.8745 3.83398 26.6143 4.57381 26.6143 5.47805V9.85536C26.5937 10.7596 25.8539 11.4994 24.9702 11.4994Z" fill="white"/>
<path d="M33.396 11.4994C32.4918 11.4994 31.752 10.7596 31.752 9.85536V5.47805C31.752 4.57381 32.4918 3.83398 33.396 3.83398C34.3002 3.83398 35.0401 4.57381 35.0401 5.47805V9.85536C35.0401 10.7596 34.3002 11.4994 33.396 11.4994Z" fill="white"/>
<path d="M41.8433 11.4994C40.939 11.4994 40.1992 10.7596 40.1992 9.85536V5.47805C40.1992 4.57381 40.939 3.83398 41.8433 3.83398C42.7475 3.83398 43.4873 4.57381 43.4873 5.47805V9.85536C43.4668 10.7596 42.7475 11.4994 41.8433 11.4994Z" fill="white"/>
<path d="M61.1998 36.8809H2.95898V47.3823H61.1998V36.8809Z" fill="#303F49"/>
<path d="M6.18703 46.7865C5.2828 46.7865 4.54297 46.0467 4.54297 45.1425V40.7652C4.54297 39.8609 5.2828 39.1211 6.18703 39.1211C7.09126 39.1211 7.83109 39.8609 7.83109 40.7652V45.1425C7.81054 46.0467 7.09126 46.7865 6.18703 46.7865Z" fill="white"/>
<path d="M14.6128 46.7865C13.7086 46.7865 12.9688 46.0467 12.9688 45.1425V40.7652C12.9688 39.8609 13.7086 39.1211 14.6128 39.1211C15.517 39.1211 16.2569 39.8609 16.2569 40.7652V45.1425C16.2569 46.0467 15.517 46.7865 14.6128 46.7865Z" fill="white"/>
<path d="M23.0601 46.7865C22.1558 46.7865 21.416 46.0467 21.416 45.1425V40.7652C21.416 39.8609 22.1558 39.1211 23.0601 39.1211C23.9643 39.1211 24.7041 39.8609 24.7041 40.7652V45.1425C24.7041 46.0467 23.9643 46.7865 23.0601 46.7865Z" fill="white"/>
<path d="M31.4859 46.7865C30.5816 46.7865 29.8418 46.0467 29.8418 45.1425V40.7652C29.8418 39.8609 30.5816 39.1211 31.4859 39.1211C32.3901 39.1211 33.1299 39.8609 33.1299 40.7652V45.1425C33.1299 46.0467 32.3901 46.7865 31.4859 46.7865Z" fill="white"/>
<path d="M39.9312 46.7865C39.0269 46.7865 38.2871 46.0467 38.2871 45.1425V40.7652C38.2871 39.8609 39.0269 39.1211 39.9312 39.1211C40.8354 39.1211 41.5752 39.8609 41.5752 40.7652V45.1425C41.5752 46.0467 40.8354 46.7865 39.9312 46.7865Z" fill="white"/>
<path d="M48.357 46.7865C47.4527 46.7865 46.7129 46.0467 46.7129 45.1425V40.7652C46.7129 39.8609 47.4527 39.1211 48.357 39.1211C49.2612 39.1211 50.001 39.8609 50.001 40.7652V45.1425C50.001 46.0467 49.2612 46.7865 48.357 46.7865Z" fill="white"/>
<path d="M56.8042 46.7865C55.9 46.7865 55.1602 46.0467 55.1602 45.1425V40.7652C55.1602 39.8609 55.9 39.1211 56.8042 39.1211C57.7085 39.1211 58.4483 39.8609 58.4483 40.7652V45.1425C58.4483 46.0467 57.7085 46.7865 56.8042 46.7865Z" fill="white"/>
<path d="M18.1671 27.6124C17.3656 27.6124 16.7285 26.9753 16.7285 26.1738V24.3448C16.7285 23.5433 17.3656 22.9062 18.1671 22.9062C18.9685 22.9062 19.6056 23.5433 19.6056 24.3448V26.1738C19.6056 26.9753 18.9685 27.6124 18.1671 27.6124Z" fill="#015F86"/>
<path d="M23.0382 32.6481C22.2367 32.6481 21.5996 32.011 21.5996 31.2096V19.2901C21.5996 18.4886 22.2367 17.8516 23.0382 17.8516C23.8396 17.8516 24.4767 18.4886 24.4767 19.2901V31.2096C24.4767 32.011 23.8396 32.6481 23.0382 32.6481Z" fill="#015F86"/>
<path d="M27.9288 29.9964C27.1273 29.9964 26.4902 29.3593 26.4902 28.5579V21.9405C26.4902 21.139 27.1273 20.502 27.9288 20.502C28.7303 20.502 29.3673 21.139 29.3673 21.9405V28.5579C29.3673 29.3593 28.7097 29.9964 27.9288 29.9964Z" fill="#015F86"/>
<path d="M32.7999 34.6202C31.9984 34.6202 31.3613 33.9831 31.3613 33.1816V17.337C31.3613 16.5355 31.9984 15.8984 32.7999 15.8984C33.6014 15.8984 34.2384 16.5355 34.2384 17.337V33.1816C34.2384 33.9626 33.6014 34.6202 32.7999 34.6202Z" fill="#015F86"/>
<path d="M37.669 30.2425C36.8675 30.2425 36.2305 29.6054 36.2305 28.804V21.7139C36.2305 20.9125 36.8675 20.2754 37.669 20.2754C38.4705 20.2754 39.1076 20.9125 39.1076 21.7139V28.804C39.1076 29.5849 38.4705 30.2425 37.669 30.2425Z" fill="#015F86"/>
<path d="M42.5596 28.4145C41.7582 28.4145 41.1211 27.7775 41.1211 26.976V23.544C41.1211 22.7425 41.7582 22.1055 42.5596 22.1055C43.3611 22.1055 43.9982 22.7425 43.9982 23.544V26.976C43.9982 27.7775 43.3406 28.4145 42.5596 28.4145Z" fill="#015F86"/>
</g>
<defs>
<clipPath id="clip0_2695_12950">
<rect width="360" height="51" fill="white"/>
</clipPath>
</defs>
</svg>
